%TF.GenerationSoftware,KiCad,Pcbnew,9.0.9-9.0.9~ubuntu24.04.1*%
%TF.CreationDate,2026-09-08T19:00:37+05:30*%
%TF.ProjectId,onstep,6f6e7374-6570-42e6-9b69-6361645f7063,rev?*%
%TF.SameCoordinates,Original*%
%TF.FileFunction,Copper,L1,Top*%
%TF.FilePolarity,Positive*%
%FSLAX46Y46*%
G04 Gerber Fmt 4.6, Leading zero omitted, Abs format (unit mm)*
G04 Created by KiCad (PCBNEW 9.0.9-9.0.9~ubuntu24.04.1) date 2026-09-08 19:00:37*
%MOMM*%
%LPD*%
G01*
G04 APERTURE LIST*
G04 Aperture macros list*
%AMRoundRect*
0 Rectangle with rounded corners*
0 $1 Rounding radius*
0 $2 $3 $4 $5 $6 $7 $8 $9 X,Y pos of 4 corners*
0 Add a 4 corners polygon primitive as box body*
4,1,4,$2,$3,$4,$5,$6,$7,$8,$9,$2,$3,0*
0 Add four circle primitives for the rounded corners*
1,1,$1+$1,$2,$3*
1,1,$1+$1,$4,$5*
1,1,$1+$1,$6,$7*
1,1,$1+$1,$8,$9*
0 Add four rect primitives between the rounded corners*
20,1,$1+$1,$2,$3,$4,$5,0*
20,1,$1+$1,$4,$5,$6,$7,0*
20,1,$1+$1,$6,$7,$8,$9,0*
20,1,$1+$1,$8,$9,$2,$3,0*%
G04 Aperture macros list end*
%ADD10C,0.300000*%
%TA.AperFunction,NonConductor*%
%ADD11C,0.300000*%
%TD*%
%TA.AperFunction,WasherPad*%
%ADD12C,4.000000*%
%TD*%
%TA.AperFunction,ComponentPad*%
%ADD13RoundRect,0.250000X-0.750000X-0.750000X0.750000X-0.750000X0.750000X0.750000X-0.750000X0.750000X0*%
%TD*%
%TA.AperFunction,ComponentPad*%
%ADD14C,2.000000*%
%TD*%
%TA.AperFunction,ComponentPad*%
%ADD15C,1.400000*%
%TD*%
%TA.AperFunction,ComponentPad*%
%ADD16R,1.600000X1.600000*%
%TD*%
%TA.AperFunction,ComponentPad*%
%ADD17O,1.600000X1.600000*%
%TD*%
%TA.AperFunction,ComponentPad*%
%ADD18RoundRect,0.250000X0.750000X-0.750000X0.750000X0.750000X-0.750000X0.750000X-0.750000X-0.750000X0*%
%TD*%
%TA.AperFunction,ComponentPad*%
%ADD19R,1.530000X1.530000*%
%TD*%
%TA.AperFunction,ComponentPad*%
%ADD20C,1.530000*%
%TD*%
%TA.AperFunction,ComponentPad*%
%ADD21C,1.200000*%
%TD*%
%TA.AperFunction,ComponentPad*%
%ADD22R,1.200000X1.200000*%
%TD*%
%TA.AperFunction,Conductor*%
%ADD23C,0.500000*%
%TD*%
%TA.AperFunction,Conductor*%
%ADD24C,0.200000*%
%TD*%
G04 APERTURE END LIST*
D10*
D11*
X206768796Y-192943685D02*
X206625939Y-192872257D01*
X206625939Y-192872257D02*
X206554510Y-192800828D01*
X206554510Y-192800828D02*
X206483082Y-192657971D01*
X206483082Y-192657971D02*
X206483082Y-192586542D01*
X206483082Y-192586542D02*
X206554510Y-192443685D01*
X206554510Y-192443685D02*
X206625939Y-192372257D01*
X206625939Y-192372257D02*
X206768796Y-192300828D01*
X206768796Y-192300828D02*
X207054510Y-192300828D01*
X207054510Y-192300828D02*
X207197368Y-192372257D01*
X207197368Y-192372257D02*
X207268796Y-192443685D01*
X207268796Y-192443685D02*
X207340225Y-192586542D01*
X207340225Y-192586542D02*
X207340225Y-192657971D01*
X207340225Y-192657971D02*
X207268796Y-192800828D01*
X207268796Y-192800828D02*
X207197368Y-192872257D01*
X207197368Y-192872257D02*
X207054510Y-192943685D01*
X207054510Y-192943685D02*
X206768796Y-192943685D01*
X206768796Y-192943685D02*
X206625939Y-193015114D01*
X206625939Y-193015114D02*
X206554510Y-193086542D01*
X206554510Y-193086542D02*
X206483082Y-193229400D01*
X206483082Y-193229400D02*
X206483082Y-193515114D01*
X206483082Y-193515114D02*
X206554510Y-193657971D01*
X206554510Y-193657971D02*
X206625939Y-193729400D01*
X206625939Y-193729400D02*
X206768796Y-193800828D01*
X206768796Y-193800828D02*
X207054510Y-193800828D01*
X207054510Y-193800828D02*
X207197368Y-193729400D01*
X207197368Y-193729400D02*
X207268796Y-193657971D01*
X207268796Y-193657971D02*
X207340225Y-193515114D01*
X207340225Y-193515114D02*
X207340225Y-193229400D01*
X207340225Y-193229400D02*
X207268796Y-193086542D01*
X207268796Y-193086542D02*
X207197368Y-193015114D01*
X207197368Y-193015114D02*
X207054510Y-192943685D01*
X207768796Y-192800828D02*
X208340224Y-192800828D01*
X207983081Y-192300828D02*
X207983081Y-193586542D01*
X207983081Y-193586542D02*
X208054510Y-193729400D01*
X208054510Y-193729400D02*
X208197367Y-193800828D01*
X208197367Y-193800828D02*
X208340224Y-193800828D01*
X208840224Y-193800828D02*
X208840224Y-192300828D01*
X209483082Y-193800828D02*
X209483082Y-193015114D01*
X209483082Y-193015114D02*
X209411653Y-192872257D01*
X209411653Y-192872257D02*
X209268796Y-192800828D01*
X209268796Y-192800828D02*
X209054510Y-192800828D01*
X209054510Y-192800828D02*
X208911653Y-192872257D01*
X208911653Y-192872257D02*
X208840224Y-192943685D01*
X211625939Y-192300828D02*
X211911653Y-192300828D01*
X211911653Y-192300828D02*
X212054510Y-192372257D01*
X212054510Y-192372257D02*
X212197367Y-192515114D01*
X212197367Y-192515114D02*
X212268796Y-192800828D01*
X212268796Y-192800828D02*
X212268796Y-193300828D01*
X212268796Y-193300828D02*
X212197367Y-193586542D01*
X212197367Y-193586542D02*
X212054510Y-193729400D01*
X212054510Y-193729400D02*
X211911653Y-193800828D01*
X211911653Y-193800828D02*
X211625939Y-193800828D01*
X211625939Y-193800828D02*
X211483082Y-193729400D01*
X211483082Y-193729400D02*
X211340224Y-193586542D01*
X211340224Y-193586542D02*
X211268796Y-193300828D01*
X211268796Y-193300828D02*
X211268796Y-192800828D01*
X211268796Y-192800828D02*
X211340224Y-192515114D01*
X211340224Y-192515114D02*
X211483082Y-192372257D01*
X211483082Y-192372257D02*
X211625939Y-192300828D01*
X212697368Y-192800828D02*
X213268796Y-192800828D01*
X212911653Y-193800828D02*
X212911653Y-192515114D01*
X212911653Y-192515114D02*
X212983082Y-192372257D01*
X212983082Y-192372257D02*
X213125939Y-192300828D01*
X213125939Y-192300828D02*
X213268796Y-192300828D01*
X214840225Y-193729400D02*
X215054511Y-193800828D01*
X215054511Y-193800828D02*
X215411653Y-193800828D01*
X215411653Y-193800828D02*
X215554511Y-193729400D01*
X215554511Y-193729400D02*
X215625939Y-193657971D01*
X215625939Y-193657971D02*
X215697368Y-193515114D01*
X215697368Y-193515114D02*
X215697368Y-193372257D01*
X215697368Y-193372257D02*
X215625939Y-193229400D01*
X215625939Y-193229400D02*
X215554511Y-193157971D01*
X215554511Y-193157971D02*
X215411653Y-193086542D01*
X215411653Y-193086542D02*
X215125939Y-193015114D01*
X215125939Y-193015114D02*
X214983082Y-192943685D01*
X214983082Y-192943685D02*
X214911653Y-192872257D01*
X214911653Y-192872257D02*
X214840225Y-192729400D01*
X214840225Y-192729400D02*
X214840225Y-192586542D01*
X214840225Y-192586542D02*
X214911653Y-192443685D01*
X214911653Y-192443685D02*
X214983082Y-192372257D01*
X214983082Y-192372257D02*
X215125939Y-192300828D01*
X215125939Y-192300828D02*
X215483082Y-192300828D01*
X215483082Y-192300828D02*
X215697368Y-192372257D01*
X216911653Y-193729400D02*
X216768796Y-193800828D01*
X216768796Y-193800828D02*
X216483082Y-193800828D01*
X216483082Y-193800828D02*
X216340224Y-193729400D01*
X216340224Y-193729400D02*
X216268796Y-193586542D01*
X216268796Y-193586542D02*
X216268796Y-193015114D01*
X216268796Y-193015114D02*
X216340224Y-192872257D01*
X216340224Y-192872257D02*
X216483082Y-192800828D01*
X216483082Y-192800828D02*
X216768796Y-192800828D01*
X216768796Y-192800828D02*
X216911653Y-192872257D01*
X216911653Y-192872257D02*
X216983082Y-193015114D01*
X216983082Y-193015114D02*
X216983082Y-193157971D01*
X216983082Y-193157971D02*
X216268796Y-193300828D01*
X217625938Y-192800828D02*
X217625938Y-194300828D01*
X217625938Y-192872257D02*
X217768796Y-192800828D01*
X217768796Y-192800828D02*
X218054510Y-192800828D01*
X218054510Y-192800828D02*
X218197367Y-192872257D01*
X218197367Y-192872257D02*
X218268796Y-192943685D01*
X218268796Y-192943685D02*
X218340224Y-193086542D01*
X218340224Y-193086542D02*
X218340224Y-193515114D01*
X218340224Y-193515114D02*
X218268796Y-193657971D01*
X218268796Y-193657971D02*
X218197367Y-193729400D01*
X218197367Y-193729400D02*
X218054510Y-193800828D01*
X218054510Y-193800828D02*
X217768796Y-193800828D01*
X217768796Y-193800828D02*
X217625938Y-193729400D01*
X218768796Y-192800828D02*
X219340224Y-192800828D01*
X218983081Y-192300828D02*
X218983081Y-193586542D01*
X218983081Y-193586542D02*
X219054510Y-193729400D01*
X219054510Y-193729400D02*
X219197367Y-193800828D01*
X219197367Y-193800828D02*
X219340224Y-193800828D01*
X220411653Y-193729400D02*
X220268796Y-193800828D01*
X220268796Y-193800828D02*
X219983082Y-193800828D01*
X219983082Y-193800828D02*
X219840224Y-193729400D01*
X219840224Y-193729400D02*
X219768796Y-193586542D01*
X219768796Y-193586542D02*
X219768796Y-193015114D01*
X219768796Y-193015114D02*
X219840224Y-192872257D01*
X219840224Y-192872257D02*
X219983082Y-192800828D01*
X219983082Y-192800828D02*
X220268796Y-192800828D01*
X220268796Y-192800828D02*
X220411653Y-192872257D01*
X220411653Y-192872257D02*
X220483082Y-193015114D01*
X220483082Y-193015114D02*
X220483082Y-193157971D01*
X220483082Y-193157971D02*
X219768796Y-193300828D01*
X221125938Y-193800828D02*
X221125938Y-192800828D01*
X221125938Y-192943685D02*
X221197367Y-192872257D01*
X221197367Y-192872257D02*
X221340224Y-192800828D01*
X221340224Y-192800828D02*
X221554510Y-192800828D01*
X221554510Y-192800828D02*
X221697367Y-192872257D01*
X221697367Y-192872257D02*
X221768796Y-193015114D01*
X221768796Y-193015114D02*
X221768796Y-193800828D01*
X221768796Y-193015114D02*
X221840224Y-192872257D01*
X221840224Y-192872257D02*
X221983081Y-192800828D01*
X221983081Y-192800828D02*
X222197367Y-192800828D01*
X222197367Y-192800828D02*
X222340224Y-192872257D01*
X222340224Y-192872257D02*
X222411653Y-193015114D01*
X222411653Y-193015114D02*
X222411653Y-193800828D01*
X223125938Y-193800828D02*
X223125938Y-192300828D01*
X223125938Y-192872257D02*
X223268796Y-192800828D01*
X223268796Y-192800828D02*
X223554510Y-192800828D01*
X223554510Y-192800828D02*
X223697367Y-192872257D01*
X223697367Y-192872257D02*
X223768796Y-192943685D01*
X223768796Y-192943685D02*
X223840224Y-193086542D01*
X223840224Y-193086542D02*
X223840224Y-193515114D01*
X223840224Y-193515114D02*
X223768796Y-193657971D01*
X223768796Y-193657971D02*
X223697367Y-193729400D01*
X223697367Y-193729400D02*
X223554510Y-193800828D01*
X223554510Y-193800828D02*
X223268796Y-193800828D01*
X223268796Y-193800828D02*
X223125938Y-193729400D01*
X225054510Y-193729400D02*
X224911653Y-193800828D01*
X224911653Y-193800828D02*
X224625939Y-193800828D01*
X224625939Y-193800828D02*
X224483081Y-193729400D01*
X224483081Y-193729400D02*
X224411653Y-193586542D01*
X224411653Y-193586542D02*
X224411653Y-193015114D01*
X224411653Y-193015114D02*
X224483081Y-192872257D01*
X224483081Y-192872257D02*
X224625939Y-192800828D01*
X224625939Y-192800828D02*
X224911653Y-192800828D01*
X224911653Y-192800828D02*
X225054510Y-192872257D01*
X225054510Y-192872257D02*
X225125939Y-193015114D01*
X225125939Y-193015114D02*
X225125939Y-193157971D01*
X225125939Y-193157971D02*
X224411653Y-193300828D01*
X225768795Y-193800828D02*
X225768795Y-192800828D01*
X225768795Y-193086542D02*
X225840224Y-192943685D01*
X225840224Y-192943685D02*
X225911653Y-192872257D01*
X225911653Y-192872257D02*
X226054510Y-192800828D01*
X226054510Y-192800828D02*
X226197367Y-192800828D01*
D10*
D11*
X188340225Y-188800828D02*
X188625939Y-188800828D01*
X188625939Y-188800828D02*
X188768796Y-188872257D01*
X188768796Y-188872257D02*
X188911653Y-189015114D01*
X188911653Y-189015114D02*
X188983082Y-189300828D01*
X188983082Y-189300828D02*
X188983082Y-189800828D01*
X188983082Y-189800828D02*
X188911653Y-190086542D01*
X188911653Y-190086542D02*
X188768796Y-190229400D01*
X188768796Y-190229400D02*
X188625939Y-190300828D01*
X188625939Y-190300828D02*
X188340225Y-190300828D01*
X188340225Y-190300828D02*
X188197368Y-190229400D01*
X188197368Y-190229400D02*
X188054510Y-190086542D01*
X188054510Y-190086542D02*
X187983082Y-189800828D01*
X187983082Y-189800828D02*
X187983082Y-189300828D01*
X187983082Y-189300828D02*
X188054510Y-189015114D01*
X188054510Y-189015114D02*
X188197368Y-188872257D01*
X188197368Y-188872257D02*
X188340225Y-188800828D01*
X189625939Y-189300828D02*
X189625939Y-190300828D01*
X189625939Y-189443685D02*
X189697368Y-189372257D01*
X189697368Y-189372257D02*
X189840225Y-189300828D01*
X189840225Y-189300828D02*
X190054511Y-189300828D01*
X190054511Y-189300828D02*
X190197368Y-189372257D01*
X190197368Y-189372257D02*
X190268797Y-189515114D01*
X190268797Y-189515114D02*
X190268797Y-190300828D01*
X190911654Y-190229400D02*
X191054511Y-190300828D01*
X191054511Y-190300828D02*
X191340225Y-190300828D01*
X191340225Y-190300828D02*
X191483082Y-190229400D01*
X191483082Y-190229400D02*
X191554511Y-190086542D01*
X191554511Y-190086542D02*
X191554511Y-190015114D01*
X191554511Y-190015114D02*
X191483082Y-189872257D01*
X191483082Y-189872257D02*
X191340225Y-189800828D01*
X191340225Y-189800828D02*
X191125940Y-189800828D01*
X191125940Y-189800828D02*
X190983082Y-189729400D01*
X190983082Y-189729400D02*
X190911654Y-189586542D01*
X190911654Y-189586542D02*
X190911654Y-189515114D01*
X190911654Y-189515114D02*
X190983082Y-189372257D01*
X190983082Y-189372257D02*
X191125940Y-189300828D01*
X191125940Y-189300828D02*
X191340225Y-189300828D01*
X191340225Y-189300828D02*
X191483082Y-189372257D01*
X191983083Y-189300828D02*
X192554511Y-189300828D01*
X192197368Y-188800828D02*
X192197368Y-190086542D01*
X192197368Y-190086542D02*
X192268797Y-190229400D01*
X192268797Y-190229400D02*
X192411654Y-190300828D01*
X192411654Y-190300828D02*
X192554511Y-190300828D01*
X193625940Y-190229400D02*
X193483083Y-190300828D01*
X193483083Y-190300828D02*
X193197369Y-190300828D01*
X193197369Y-190300828D02*
X193054511Y-190229400D01*
X193054511Y-190229400D02*
X192983083Y-190086542D01*
X192983083Y-190086542D02*
X192983083Y-189515114D01*
X192983083Y-189515114D02*
X193054511Y-189372257D01*
X193054511Y-189372257D02*
X193197369Y-189300828D01*
X193197369Y-189300828D02*
X193483083Y-189300828D01*
X193483083Y-189300828D02*
X193625940Y-189372257D01*
X193625940Y-189372257D02*
X193697369Y-189515114D01*
X193697369Y-189515114D02*
X193697369Y-189657971D01*
X193697369Y-189657971D02*
X192983083Y-189800828D01*
X194340225Y-189300828D02*
X194340225Y-190800828D01*
X194340225Y-189372257D02*
X194483083Y-189300828D01*
X194483083Y-189300828D02*
X194768797Y-189300828D01*
X194768797Y-189300828D02*
X194911654Y-189372257D01*
X194911654Y-189372257D02*
X194983083Y-189443685D01*
X194983083Y-189443685D02*
X195054511Y-189586542D01*
X195054511Y-189586542D02*
X195054511Y-190015114D01*
X195054511Y-190015114D02*
X194983083Y-190157971D01*
X194983083Y-190157971D02*
X194911654Y-190229400D01*
X194911654Y-190229400D02*
X194768797Y-190300828D01*
X194768797Y-190300828D02*
X194483083Y-190300828D01*
X194483083Y-190300828D02*
X194340225Y-190229400D01*
D12*
%TO.P,H1,*%
%TO.N,*%
X125000000Y-81500000D03*
%TD*%
D13*
%TO.P,INPUT1,1,Pin_1*%
%TO.N,+12V*%
X196460000Y-85500000D03*
D14*
%TO.P,INPUT1,2,Pin_2*%
%TO.N,GND*%
X199000000Y-85500000D03*
%TD*%
D15*
%TO.P,U2,1,IN+*%
%TO.N,+12V*%
X166112500Y-83112500D03*
%TO.P,U2,2,IN-*%
%TO.N,GND*%
X166112500Y-93112500D03*
%TO.P,U2,3,OUT-*%
X151112500Y-93112500D03*
%TO.P,U2,4,OUT+*%
%TO.N,+5V*%
X151112500Y-83112500D03*
%TD*%
D16*
%TO.P,AXIS2,1,GND*%
%TO.N,GND*%
X183000000Y-124240000D03*
D17*
%TO.P,AXIS2,2,VDD*%
%TO.N,+5V*%
X183000000Y-121700000D03*
%TO.P,AXIS2,3,1B*%
%TO.N,21B*%
X183000000Y-119160000D03*
%TO.P,AXIS2,4,1A*%
%TO.N,21A*%
X183000000Y-116620000D03*
%TO.P,AXIS2,5,2A*%
%TO.N,22A*%
X183000000Y-114080000D03*
%TO.P,AXIS2,6,2B*%
%TO.N,22B*%
X183000000Y-111540000D03*
%TO.P,AXIS2,7,GND*%
%TO.N,GND*%
X183000000Y-109000000D03*
%TO.P,AXIS2,8,VMOT*%
%TO.N,+12V*%
X183000000Y-106460000D03*
%TO.P,AXIS2,9,~{ENABLE}*%
%TO.N,EN12*%
X170300000Y-106460000D03*
%TO.P,AXIS2,10,MS1*%
%TO.N,MOSI*%
X170300000Y-109000000D03*
%TO.P,AXIS2,11,MS2*%
%TO.N,CLK*%
X170300000Y-111540000D03*
%TO.P,AXIS2,12,MS3*%
%TO.N,CS2*%
X170300000Y-114080000D03*
%TO.P,AXIS2,13,~{RESET}*%
%TO.N,Net-(AXIS2-~{RESET})*%
X170300000Y-116620000D03*
%TO.P,AXIS2,14,~{SLEEP}*%
X170300000Y-119160000D03*
%TO.P,AXIS2,15,STEP*%
%TO.N,STEP2*%
X170300000Y-121700000D03*
%TO.P,AXIS2,16,DIR*%
%TO.N,DIR2*%
X170300000Y-124240000D03*
%TD*%
D18*
%TO.P,J2,1,Pin_1*%
%TO.N,21B*%
X203000000Y-119120000D03*
D14*
%TO.P,J2,2,Pin_2*%
%TO.N,21A*%
X203000000Y-116580000D03*
%TO.P,J2,3,Pin_3*%
%TO.N,22A*%
X203000000Y-114040000D03*
%TO.P,J2,4,Pin_4*%
%TO.N,22B*%
X203000000Y-111500000D03*
%TD*%
D12*
%TO.P,H4,*%
%TO.N,*%
X125000000Y-153500000D03*
%TD*%
D18*
%TO.P,J1,1,Pin_1*%
%TO.N,11B*%
X202500000Y-145580000D03*
D14*
%TO.P,J1,2,Pin_2*%
%TO.N,11A*%
X202500000Y-143040000D03*
%TO.P,J1,3,Pin_3*%
%TO.N,12A*%
X202500000Y-140500000D03*
%TO.P,J1,4,Pin_4*%
%TO.N,12B*%
X202500000Y-137960000D03*
%TD*%
D19*
%TO.P,U1,1,3V3*%
%TO.N,unconnected-(U1-3V3-Pad1)*%
X136572500Y-105800000D03*
D20*
%TO.P,U1,2,EN*%
%TO.N,unconnected-(U1-EN-Pad2)*%
X136572500Y-108340000D03*
%TO.P,U1,3,SENSOR_VP*%
%TO.N,unconnected-(U1-SENSOR_VP-Pad3)*%
X136572500Y-110880000D03*
%TO.P,U1,4,SENSOR_VN*%
%TO.N,unconnected-(U1-SENSOR_VN-Pad4)*%
X136572500Y-113420000D03*
%TO.P,U1,5,IO34*%
%TO.N,unconnected-(U1-IO34-Pad5)*%
X136572500Y-115960000D03*
%TO.P,U1,6,IO35*%
%TO.N,unconnected-(U1-IO35-Pad6)*%
X136572500Y-118500000D03*
%TO.P,U1,7,IO32*%
%TO.N,unconnected-(U1-IO32-Pad7)*%
X136572500Y-121040000D03*
%TO.P,U1,8,IO33*%
%TO.N,unconnected-(U1-IO33-Pad8)*%
X136572500Y-123580000D03*
%TO.P,U1,9,IO25*%
%TO.N,unconnected-(U1-IO25-Pad9)*%
X136572500Y-126120000D03*
%TO.P,U1,10,IO26*%
%TO.N,DIR2*%
X136572500Y-128660000D03*
%TO.P,U1,11,IO27*%
%TO.N,STEP2*%
X136572500Y-131200000D03*
%TO.P,U1,12,IO14*%
%TO.N,CLK*%
X136572500Y-133740000D03*
%TO.P,U1,13,IO12*%
%TO.N,EN12*%
X136572500Y-136280000D03*
%TO.P,U1,14,GND1*%
%TO.N,unconnected-(U1-GND1-Pad14)*%
X136572500Y-138820000D03*
%TO.P,U1,15,IO13*%
%TO.N,MOSI*%
X136572500Y-141360000D03*
%TO.P,U1,16,SD2*%
%TO.N,unconnected-(U1-SD2-Pad16)*%
X136572500Y-143900000D03*
%TO.P,U1,17,SD3*%
%TO.N,unconnected-(U1-SD3-Pad17)*%
X136572500Y-146440000D03*
%TO.P,U1,18,CMD*%
%TO.N,unconnected-(U1-CMD-Pad18)*%
X136572500Y-148980000D03*
%TO.P,U1,19,EXT_5V*%
%TO.N,+5V*%
X136572500Y-151520000D03*
%TO.P,U1,20,CLK*%
%TO.N,unconnected-(U1-CLK-Pad20)*%
X161972500Y-151520000D03*
%TO.P,U1,21,SD0*%
%TO.N,unconnected-(U1-SD0-Pad21)*%
X161972500Y-148980000D03*
%TO.P,U1,22,SD1*%
%TO.N,unconnected-(U1-SD1-Pad22)*%
X161972500Y-146440000D03*
%TO.P,U1,23,IO15*%
%TO.N,unconnected-(U1-IO15-Pad23)*%
X161972500Y-143900000D03*
%TO.P,U1,24,IO2*%
%TO.N,unconnected-(U1-IO2-Pad24)*%
X161972500Y-141360000D03*
%TO.P,U1,25,IO0*%
%TO.N,DIR1*%
X161972500Y-138820000D03*
%TO.P,U1,26,IO4*%
%TO.N,unconnected-(U1-IO4-Pad26)*%
X161972500Y-136280000D03*
%TO.P,U1,27,IO16*%
%TO.N,unconnected-(U1-IO16-Pad27)*%
X161972500Y-133740000D03*
%TO.P,U1,28,IO17*%
%TO.N,unconnected-(U1-IO17-Pad28)*%
X161972500Y-131200000D03*
%TO.P,U1,29,IO5*%
%TO.N,CS2*%
X161972500Y-128660000D03*
%TO.P,U1,30,IO18*%
%TO.N,STEP1*%
X161972500Y-126120000D03*
%TO.P,U1,31,IO19*%
%TO.N,unconnected-(U1-IO19-Pad31)*%
X161972500Y-123580000D03*
%TO.P,U1,32,GND2*%
%TO.N,unconnected-(U1-GND2-Pad32)*%
X161972500Y-121040000D03*
%TO.P,U1,33,IO21*%
%TO.N,unconnected-(U1-IO21-Pad33)*%
X161972500Y-118500000D03*
%TO.P,U1,34,RXD0*%
%TO.N,unconnected-(U1-RXD0-Pad34)*%
X161972500Y-115960000D03*
%TO.P,U1,35,TXD0*%
%TO.N,unconnected-(U1-TXD0-Pad35)*%
X161972500Y-113420000D03*
%TO.P,U1,36,IO22*%
%TO.N,unconnected-(U1-IO22-Pad36)*%
X161972500Y-110880000D03*
%TO.P,U1,37,IO23*%
%TO.N,CS1*%
X161972500Y-108340000D03*
%TO.P,U1,38,GND3*%
%TO.N,GND*%
X161972500Y-105800000D03*
%TD*%
D12*
%TO.P,H3,*%
%TO.N,*%
X209000000Y-153500000D03*
%TD*%
%TO.P,H2,*%
%TO.N,*%
X209000000Y-81500000D03*
%TD*%
D16*
%TO.P,AXIS1,1,GND*%
%TO.N,GND*%
X182840000Y-150890000D03*
D17*
%TO.P,AXIS1,2,VDD*%
%TO.N,+5V*%
X182840000Y-148350000D03*
%TO.P,AXIS1,3,1B*%
%TO.N,11B*%
X182840000Y-145810000D03*
%TO.P,AXIS1,4,1A*%
%TO.N,11A*%
X182840000Y-143270000D03*
%TO.P,AXIS1,5,2A*%
%TO.N,12A*%
X182840000Y-140730000D03*
%TO.P,AXIS1,6,2B*%
%TO.N,12B*%
X182840000Y-138190000D03*
%TO.P,AXIS1,7,GND*%
%TO.N,GND*%
X182840000Y-135650000D03*
%TO.P,AXIS1,8,VMOT*%
%TO.N,+12V*%
X182840000Y-133110000D03*
%TO.P,AXIS1,9,~{ENABLE}*%
%TO.N,EN12*%
X170140000Y-133110000D03*
%TO.P,AXIS1,10,MS1*%
%TO.N,MOSI*%
X170140000Y-135650000D03*
%TO.P,AXIS1,11,MS2*%
%TO.N,CLK*%
X170140000Y-138190000D03*
%TO.P,AXIS1,12,MS3*%
%TO.N,CS1*%
X170140000Y-140730000D03*
%TO.P,AXIS1,13,~{RESET}*%
%TO.N,Net-(AXIS1-~{RESET})*%
X170140000Y-143270000D03*
%TO.P,AXIS1,14,~{SLEEP}*%
X170140000Y-145810000D03*
%TO.P,AXIS1,15,STEP*%
%TO.N,STEP1*%
X170140000Y-148350000D03*
%TO.P,AXIS1,16,DIR*%
%TO.N,DIR1*%
X170140000Y-150890000D03*
%TD*%
D21*
%TO.P,100UF\u002C50V2,N*%
%TO.N,GND*%
X191000000Y-135000000D03*
D22*
%TO.P,100UF\u002C50V2,P*%
%TO.N,+12V*%
X191000000Y-130000000D03*
%TD*%
D21*
%TO.P,100UF\u002C50V1,N*%
%TO.N,GND*%
X191500000Y-107000000D03*
D22*
%TO.P,100UF\u002C50V1,P*%
%TO.N,+12V*%
X191500000Y-102000000D03*
%TD*%
D23*
%TO.N,CLK*%
X136572500Y-133740000D02*
X131240000Y-133740000D01*
X131240000Y-133740000D02*
X130000000Y-132500000D01*
X140500000Y-111500000D02*
X157110000Y-111500000D01*
X130000000Y-132500000D02*
X130000000Y-114000000D01*
X130000000Y-114000000D02*
X134445000Y-109555000D01*
X159055000Y-109555000D02*
X168315000Y-109555000D01*
X134445000Y-109555000D02*
X138555000Y-109555000D01*
X138555000Y-109555000D02*
X140500000Y-111500000D01*
X157110000Y-111500000D02*
X159055000Y-109555000D01*
X168315000Y-109555000D02*
X168500000Y-109740000D01*
X170140000Y-138190000D02*
X172810000Y-138190000D01*
X172810000Y-138190000D02*
X175500000Y-135500000D01*
X175500000Y-135500000D02*
X175500000Y-105500000D01*
X175500000Y-105500000D02*
X174500000Y-104500000D01*
X174500000Y-104500000D02*
X168500000Y-104500000D01*
X168500000Y-104500000D02*
X168500000Y-109740000D01*
X168500000Y-109740000D02*
X170300000Y-111540000D01*
%TO.N,STEP1*%
X170140000Y-148350000D02*
X167015000Y-145225000D01*
X167015000Y-145225000D02*
X132725000Y-145225000D01*
X132595000Y-124905000D02*
X157905000Y-124905000D01*
X132725000Y-145225000D02*
X132500000Y-145000000D01*
X132500000Y-145000000D02*
X132500000Y-136000000D01*
X159120000Y-126120000D02*
X161972500Y-126120000D01*
X132500000Y-136000000D02*
X133500000Y-135000000D01*
X133500000Y-135000000D02*
X138500000Y-135000000D01*
X138500000Y-135000000D02*
X138500000Y-132500000D01*
X138500000Y-132500000D02*
X133000000Y-132500000D01*
X133000000Y-132500000D02*
X132500000Y-132000000D01*
X132500000Y-132000000D02*
X132500000Y-125000000D01*
X132500000Y-125000000D02*
X132595000Y-124905000D01*
X157905000Y-124905000D02*
X159120000Y-126120000D01*
%TO.N,GND*%
X208000000Y-148500000D02*
X189000000Y-148500000D01*
X189000000Y-150780000D02*
X188890000Y-150890000D01*
X163500000Y-93112500D02*
X166112500Y-93112500D01*
X180500000Y-126740000D02*
X183000000Y-124240000D01*
X199000000Y-85500000D02*
X199000000Y-97500000D01*
X182840000Y-150890000D02*
X188890000Y-150890000D01*
X180500000Y-146500000D02*
X180500000Y-126740000D01*
X182840000Y-135650000D02*
X190350000Y-135650000D01*
X191000000Y-135000000D02*
X208000000Y-135000000D01*
X163500000Y-80500000D02*
X199000000Y-80500000D01*
X208000000Y-97500000D02*
X199000000Y-97500000D01*
X199000000Y-85500000D02*
X199000000Y-80500000D01*
X188600000Y-147100000D02*
X181100000Y-147100000D01*
X151112500Y-93112500D02*
X163500000Y-93112500D01*
X181100000Y-147100000D02*
X180500000Y-146500000D01*
X163500000Y-93112500D02*
X163500000Y-80500000D01*
X208000000Y-97500000D02*
X208000000Y-135000000D01*
X189500000Y-109000000D02*
X191500000Y-107000000D01*
X199000000Y-97500000D02*
X199000000Y-107000000D01*
X189000000Y-149000000D02*
X189000000Y-150780000D01*
X208000000Y-135000000D02*
X208000000Y-148500000D01*
X189000000Y-147500000D02*
X188600000Y-147100000D01*
X190350000Y-135650000D02*
X191000000Y-135000000D01*
X166112500Y-105487500D02*
X166112500Y-93112500D01*
X183000000Y-109000000D02*
X189500000Y-109000000D01*
X165800000Y-105800000D02*
X161972500Y-105800000D01*
X189000000Y-148500000D02*
X189000000Y-147500000D01*
X189000000Y-148500000D02*
X189000000Y-149000000D01*
X165800000Y-105800000D02*
X166112500Y-105487500D01*
X199000000Y-107000000D02*
X191500000Y-107000000D01*
%TO.N,+12V*%
X191000000Y-130000000D02*
X191000000Y-120500000D01*
X181000000Y-95000000D02*
X191500000Y-95000000D01*
X181050000Y-120450000D02*
X181000000Y-120400000D01*
X191500000Y-91500000D02*
X191500000Y-92000000D01*
X191500000Y-91500000D02*
X196420000Y-91500000D01*
X187040000Y-106460000D02*
X191500000Y-102000000D01*
X190950000Y-120450000D02*
X181050000Y-120450000D01*
X191500000Y-92500000D02*
X191500000Y-95000000D01*
X187890000Y-133110000D02*
X191000000Y-130000000D01*
X191000000Y-120500000D02*
X190950000Y-120450000D01*
X196460000Y-85500000D02*
X196460000Y-91460000D01*
X182840000Y-133110000D02*
X187890000Y-133110000D01*
X191500000Y-95000000D02*
X191500000Y-102000000D01*
X188000000Y-92000000D02*
X191500000Y-92000000D01*
X181000000Y-120400000D02*
X181000000Y-95000000D01*
D24*
X187887500Y-91887500D02*
X188000000Y-92000000D01*
D23*
X187887500Y-83112500D02*
X187887500Y-91887500D01*
D24*
X196420000Y-91500000D02*
X196460000Y-91460000D01*
D23*
X166112500Y-83112500D02*
X187887500Y-83112500D01*
X183000000Y-106460000D02*
X187040000Y-106460000D01*
X191500000Y-92000000D02*
X191500000Y-92500000D01*
D24*
%TO.N,12A*%
X202270000Y-140730000D02*
X202500000Y-140500000D01*
D23*
X182840000Y-140730000D02*
X202270000Y-140730000D01*
%TO.N,MOSI*%
X168000000Y-131500000D02*
X170000000Y-129500000D01*
X168650000Y-135650000D02*
X170140000Y-135650000D01*
X170000000Y-129500000D02*
X172000000Y-129500000D01*
X138140000Y-141360000D02*
X144500000Y-135000000D01*
X168000000Y-135000000D02*
X168650000Y-135650000D01*
X144500000Y-135000000D02*
X168000000Y-135000000D01*
X170300000Y-109000000D02*
X172000000Y-110700000D01*
X168000000Y-131500000D02*
X168000000Y-135000000D01*
X172000000Y-129500000D02*
X172000000Y-110700000D01*
X136572500Y-141360000D02*
X138140000Y-141360000D01*
%TO.N,11A*%
X182840000Y-143270000D02*
X202270000Y-143270000D01*
D24*
X202270000Y-143270000D02*
X202500000Y-143040000D01*
D23*
%TO.N,12B*%
X182840000Y-138190000D02*
X202270000Y-138190000D01*
D24*
X202270000Y-138190000D02*
X202500000Y-137960000D01*
D23*
%TO.N,Net-(AXIS1-~{RESET})*%
X170140000Y-143270000D02*
X170140000Y-145810000D01*
D24*
%TO.N,11B*%
X202270000Y-145810000D02*
X202500000Y-145580000D01*
D23*
X182840000Y-145810000D02*
X202270000Y-145810000D01*
%TO.N,+5V*%
X183000000Y-121700000D02*
X179700000Y-121700000D01*
X147000000Y-95500000D02*
X126500000Y-95500000D01*
X147000000Y-95500000D02*
X147000000Y-87000000D01*
X167500000Y-107000000D02*
X167500000Y-103000000D01*
X151112500Y-83112500D02*
X147112500Y-83112500D01*
X179000000Y-126000000D02*
X179500000Y-125500000D01*
X167500000Y-103000000D02*
X179500000Y-103000000D01*
X159515000Y-107015000D02*
X162485000Y-107015000D01*
X135020000Y-151520000D02*
X136572500Y-151520000D01*
X126500000Y-95500000D02*
X125750000Y-96250000D01*
X179000000Y-126000000D02*
X179000000Y-148350000D01*
X147000000Y-106500000D02*
X159000000Y-106500000D01*
X179500000Y-125500000D02*
X179500000Y-121500000D01*
X179000000Y-148350000D02*
X182840000Y-148350000D01*
X147000000Y-95500000D02*
X147000000Y-106500000D01*
D24*
X147000000Y-83225000D02*
X147112500Y-83112500D01*
D23*
X147000000Y-87000000D02*
X147000000Y-83225000D01*
D24*
X179700000Y-121700000D02*
X179500000Y-121500000D01*
D23*
X162485000Y-107015000D02*
X162500000Y-107000000D01*
X159000000Y-106500000D02*
X159515000Y-107015000D01*
X162500000Y-107000000D02*
X167500000Y-107000000D01*
X179500000Y-103000000D02*
X179500000Y-121500000D01*
X125750000Y-96250000D02*
X125750000Y-142250000D01*
X125750000Y-142250000D02*
X135020000Y-151520000D01*
%TO.N,DIR1*%
X161972500Y-138820000D02*
X163820000Y-138820000D01*
X172500000Y-148530000D02*
X170140000Y-150890000D01*
X172500000Y-142500000D02*
X172500000Y-148530000D01*
X167000000Y-142000000D02*
X172000000Y-142000000D01*
X163820000Y-138820000D02*
X167000000Y-142000000D01*
X172000000Y-142000000D02*
X172500000Y-142500000D01*
%TO.N,EN12*%
X173800000Y-108300000D02*
X173800000Y-129500000D01*
X134685000Y-142685000D02*
X139815000Y-142685000D01*
X172440000Y-136940000D02*
X172440000Y-133940000D01*
X171610000Y-133110000D02*
X170140000Y-133110000D01*
X135220000Y-136280000D02*
X134500000Y-137000000D01*
X173800000Y-129500000D02*
X173750000Y-129500000D01*
X173750000Y-129500000D02*
X170140000Y-133110000D01*
X134500000Y-137000000D02*
X134500000Y-142500000D01*
X139815000Y-142685000D02*
X145000000Y-137500000D01*
X172440000Y-133940000D02*
X171610000Y-133110000D01*
X167060000Y-136940000D02*
X172440000Y-136940000D01*
X170300000Y-106460000D02*
X171960000Y-106460000D01*
X145000000Y-137500000D02*
X166500000Y-137500000D01*
X134500000Y-142500000D02*
X134685000Y-142685000D01*
X171960000Y-106460000D02*
X173800000Y-108300000D01*
X136572500Y-136280000D02*
X135220000Y-136280000D01*
X166500000Y-137500000D02*
X167060000Y-136940000D01*
%TO.N,CS1*%
X175000000Y-154500000D02*
X158000000Y-154500000D01*
X139590000Y-108340000D02*
X161972500Y-108340000D01*
X158000000Y-149000000D02*
X156765000Y-147765000D01*
X130500000Y-145000000D02*
X130500000Y-137000000D01*
X133265000Y-147765000D02*
X130500000Y-145000000D01*
X170140000Y-140730000D02*
X174730000Y-140730000D01*
X128000000Y-109000000D02*
X129875000Y-107125000D01*
X130500000Y-137000000D02*
X128000000Y-134500000D01*
X156765000Y-147765000D02*
X133265000Y-147765000D01*
X138375000Y-107125000D02*
X139590000Y-108340000D01*
X158000000Y-154500000D02*
X158000000Y-149000000D01*
X128000000Y-134500000D02*
X128000000Y-109000000D01*
X129875000Y-107125000D02*
X138375000Y-107125000D01*
X175000000Y-141000000D02*
X175000000Y-154500000D01*
X174730000Y-140730000D02*
X175000000Y-141000000D01*
%TO.N,DIR2*%
X167260000Y-124240000D02*
X170300000Y-124240000D01*
X160500000Y-132500000D02*
X164000000Y-132500000D01*
X167000000Y-129500000D02*
X167000000Y-124500000D01*
X136572500Y-128660000D02*
X137412500Y-129500000D01*
X167000000Y-124500000D02*
X167260000Y-124240000D01*
X137412500Y-129500000D02*
X157500000Y-129500000D01*
X157500000Y-129500000D02*
X160500000Y-132500000D01*
X164000000Y-132500000D02*
X167000000Y-129500000D01*
%TO.N,STEP2*%
X165500000Y-122000000D02*
X165800000Y-121700000D01*
X165800000Y-121700000D02*
X170300000Y-121700000D01*
X134700000Y-131200000D02*
X134500000Y-131000000D01*
X136572500Y-131200000D02*
X134700000Y-131200000D01*
X161015000Y-129985000D02*
X165015000Y-129985000D01*
X165500000Y-129500000D02*
X165500000Y-122000000D01*
X134500000Y-127500000D02*
X134665000Y-127335000D01*
X134665000Y-127335000D02*
X158335000Y-127335000D01*
X165015000Y-129985000D02*
X165500000Y-129500000D01*
X134500000Y-131000000D02*
X134500000Y-127500000D01*
X158335000Y-127335000D02*
X161000000Y-130000000D01*
%TO.N,21A*%
X183000000Y-116620000D02*
X202960000Y-116620000D01*
D24*
X202960000Y-116620000D02*
X203000000Y-116580000D01*
%TO.N,22B*%
X202960000Y-111540000D02*
X203000000Y-111500000D01*
D23*
X183000000Y-111540000D02*
X202960000Y-111540000D01*
D24*
%TO.N,CS2*%
X169880000Y-114500000D02*
X170300000Y-114080000D01*
D23*
X170300000Y-114080000D02*
X163920000Y-114080000D01*
X160000000Y-115000000D02*
X160365000Y-114635000D01*
X163920000Y-114080000D02*
X163365000Y-114635000D01*
X163500000Y-125000000D02*
X163295000Y-124795000D01*
X160295000Y-124795000D02*
X160000000Y-124500000D01*
X160000000Y-124500000D02*
X160000000Y-115000000D01*
X163500000Y-127132500D02*
X163500000Y-125000000D01*
X163295000Y-124795000D02*
X160295000Y-124795000D01*
X163365000Y-114635000D02*
X160365000Y-114635000D01*
X161972500Y-128660000D02*
X163500000Y-127132500D01*
%TO.N,21B*%
X183000000Y-119160000D02*
X202960000Y-119160000D01*
D24*
X202960000Y-119160000D02*
X203000000Y-119120000D01*
D23*
%TO.N,Net-(AXIS2-~{RESET})*%
X170300000Y-116620000D02*
X170300000Y-119160000D01*
D24*
%TO.N,22A*%
X202960000Y-114080000D02*
X203000000Y-114040000D01*
D23*
X183000000Y-114080000D02*
X202960000Y-114080000D01*
%TD*%
M02*
