M48
; DRILL file {KiCad 9.0.9-9.0.9~ubuntu24.04.1} date 2026-09-08T19:01:26+0530
; FORMAT={-:-/ absolute / metric / decimal}
; #@! TF.CreationDate,2026-09-08T19:01:26+05:30
; #@! TF.GenerationSoftware,Kicad,Pcbnew,9.0.9-9.0.9~ubuntu24.04.1
; #@! TF.FileFunction,Plated,1,2,PTH
FMAT,2
METRIC
; #@! TA.AperFunction,Plated,PTH,ComponentDrill
T1C0.800
; #@! TA.AperFunction,Plated,PTH,ComponentDrill
T2C0.850
; #@! TA.AperFunction,Plated,PTH,ComponentDrill
T3C1.000
; #@! TA.AperFunction,Plated,PTH,ComponentDrill
T4C1.020
; #@! TA.AperFunction,Plated,PTH,ComponentDrill
T5C1.200
%
G90
G05
T1
X170.14Y-133.11
X170.14Y-135.65
X170.14Y-138.19
X170.14Y-140.73
X170.14Y-143.27
X170.14Y-145.81
X170.14Y-148.35
X170.14Y-150.89
X170.3Y-106.46
X170.3Y-109.0
X170.3Y-111.54
X170.3Y-114.08
X170.3Y-116.62
X170.3Y-119.16
X170.3Y-121.7
X170.3Y-124.24
X182.84Y-133.11
X182.84Y-135.65
X182.84Y-138.19
X182.84Y-140.73
X182.84Y-143.27
X182.84Y-145.81
X182.84Y-148.35
X182.84Y-150.89
X183.0Y-106.46
X183.0Y-109.0
X183.0Y-111.54
X183.0Y-114.08
X183.0Y-116.62
X183.0Y-119.16
X183.0Y-121.7
X183.0Y-124.24
T2
X191.0Y-130.0
X191.0Y-135.0
X191.5Y-102.0
X191.5Y-107.0
T3
X151.112Y-83.112
X151.112Y-93.112
X166.112Y-83.112
X166.112Y-93.112
T4
X136.572Y-105.8
X136.572Y-108.34
X136.572Y-110.88
X136.572Y-113.42
X136.572Y-115.96
X136.572Y-118.5
X136.572Y-121.04
X136.572Y-123.58
X136.572Y-126.12
X136.572Y-128.66
X136.572Y-131.2
X136.572Y-133.74
X136.572Y-136.28
X136.572Y-138.82
X136.572Y-141.36
X136.572Y-143.9
X136.572Y-146.44
X136.572Y-148.98
X136.572Y-151.52
X161.972Y-105.8
X161.972Y-108.34
X161.972Y-110.88
X161.972Y-113.42
X161.972Y-115.96
X161.972Y-118.5
X161.972Y-121.04
X161.972Y-123.58
X161.972Y-126.12
X161.972Y-128.66
X161.972Y-131.2
X161.972Y-133.74
X161.972Y-136.28
X161.972Y-138.82
X161.972Y-141.36
X161.972Y-143.9
X161.972Y-146.44
X161.972Y-148.98
X161.972Y-151.52
T5
X196.46Y-85.5
X199.0Y-85.5
X202.5Y-137.96
X202.5Y-140.5
X202.5Y-143.04
X202.5Y-145.58
X203.0Y-111.5
X203.0Y-114.04
X203.0Y-116.58
X203.0Y-119.12
M30
